<svg width="200" height="200" xmlns="http://www.w3.org/2000/svg">
  <!-- Background Circle -->
  <circle cx="100" cy="100" r="95" fill="#1e3a8a" stroke="#991b1b" stroke-width="5"/>
  
  <!-- Inner Circle -->
  <circle cx="100" cy="100" r="70" fill="none" stroke="#fbbf24" stroke-width="3"/>
  
  <!-- Text MAAGAP -->
  <text x="100" y="95" font-family="Arial, sans-serif" font-size="28" font-weight="bold" fill="#fbbf24" text-anchor="middle">MAAGAP</text>
  
  <!-- Text Kuwait -->
  <text x="100" y="120" font-family="Arial, sans-serif" font-size="16" fill="white" text-anchor="middle">KUWAIT</text>
  
  <!-- Stars -->
  <polygon points="100,20 105,35 120,35 108,45 113,60 100,50 87,60 92,45 80,35 95,35" fill="#fbbf24"/>
  <polygon points="40,60 43,68 52,68 45,74 48,82 40,76 32,82 35,74 28,68 37,68" fill="#fbbf24"/>
  <polygon points="160,60 163,68 172,68 165,74 168,82 160,76 152,82 155,74 148,68 157,68" fill="#fbbf24"/>
</svg>
